<svg xmlns="http://www.w3.org/2000/svg" xmlns:xlink="http://www.w3.org/1999/xlink" width="215" zoomAndPan="magnify" viewBox="0 0 161.25 121.499994" height="162" preserveAspectRatio="xMidYMid meet" version="1.0"><defs><clipPath id="1f45e3fe55"><path d="M 0 0.03125 L 160.503906 0.03125 L 160.503906 120.96875 L 0 120.96875 Z M 0 0.03125 " clip-rule="nonzero"/></clipPath><clipPath id="be9a9a6083"><rect x="0" width="161" y="0" height="121"/></clipPath></defs><g clip-path="url(#1f45e3fe55)"><g transform="matrix(1, 0, 0, 1, 0, -0.000000000000001964)"><g clip-path="url(#be9a9a6083)"><path fill="#fd6e00" d="M 104.324219 21.613281 L 104.921875 21.613281 C 105.464844 21.613281 106.007812 21.613281 106.550781 21.617188 C 107.136719 21.617188 107.726562 21.617188 108.3125 21.617188 C 109.332031 21.617188 110.347656 21.617188 111.363281 21.617188 C 112.832031 21.617188 114.304688 21.617188 115.773438 21.617188 C 118.160156 21.617188 120.542969 21.621094 122.929688 21.621094 C 126.105469 21.621094 129.285156 21.625 132.460938 21.625 C 138.40625 21.625 144.347656 21.628906 150.289062 21.628906 C 150.464844 22.210938 150.347656 22.683594 150.222656 23.265625 C 149.964844 24.566406 149.726562 25.871094 149.5 27.179688 L 149.320312 28.210938 C 149.140625 29.246094 148.960938 30.28125 148.78125 31.3125 C 148.707031 31.738281 148.636719 32.164062 148.5625 32.585938 C 148.527344 32.785156 148.492188 32.984375 148.457031 33.1875 C 148.410156 33.460938 148.363281 33.734375 148.3125 34.011719 L 148.234375 34.480469 L 148.160156 34.828125 L 148.027344 34.960938 C 147.765625 34.976562 147.507812 34.984375 147.246094 34.988281 L 146.726562 34.996094 L 146.144531 35.003906 L 145.527344 35.011719 C 144.949219 35.019531 144.371094 35.027344 143.792969 35.035156 C 143.421875 35.039062 143.046875 35.042969 142.675781 35.046875 C 137.820312 35.101562 132.96875 35.105469 128.113281 35.097656 L 127.25 35.097656 C 123.894531 35.09375 120.539062 35.089844 117.183594 35.085938 L 116.878906 35.085938 L 115.652344 35.082031 C 113.96875 35.078125 112.285156 35.078125 110.601562 35.074219 C 109.574219 35.074219 108.546875 35.074219 107.519531 35.070312 C 106.738281 35.066406 105.960938 35.066406 105.179688 35.066406 C 104.863281 35.066406 104.542969 35.066406 104.226562 35.066406 C 103.792969 35.0625 103.359375 35.0625 102.921875 35.0625 L 102.542969 35.0625 C 101.464844 35.066406 100.476562 35.21875 99.515625 35.738281 C 98.816406 36.171875 98.230469 36.691406 97.820312 37.417969 C 97.15625 38.847656 96.960938 40.550781 96.699219 42.09375 C 96.636719 42.445312 96.578125 42.792969 96.515625 43.144531 C 96.160156 44.972656 96.160156 44.972656 96.0625 46.828125 C 96.148438 47.050781 96.234375 47.273438 96.332031 47.492188 L 96.332031 47.894531 L 96.730469 48.027344 L 96.730469 48.292969 C 97.3125 48.527344 97.789062 48.710938 98.417969 48.710938 L 99.238281 48.710938 L 99.691406 48.714844 C 100.199219 48.714844 100.703125 48.714844 101.210938 48.714844 C 101.570312 48.714844 101.933594 48.71875 102.292969 48.71875 C 103.074219 48.71875 103.855469 48.722656 104.636719 48.722656 C 105.765625 48.726562 106.898438 48.726562 108.027344 48.730469 C 109.867188 48.734375 111.703125 48.742188 113.542969 48.746094 L 113.875 48.746094 C 115.542969 48.75 117.210938 48.753906 118.882812 48.757812 L 119.214844 48.757812 C 121.042969 48.761719 122.871094 48.765625 124.699219 48.769531 C 125.824219 48.773438 126.953125 48.777344 128.078125 48.777344 C 128.851562 48.777344 129.625 48.78125 130.398438 48.785156 C 130.847656 48.785156 131.292969 48.785156 131.738281 48.785156 C 135.035156 48.785156 138.046875 49.042969 140.996094 50.664062 C 143.046875 51.882812 144.625 53.410156 145.960938 55.382812 C 146.171875 55.78125 146.246094 56.109375 146.292969 56.558594 L 146.558594 56.558594 C 147.648438 58.953125 148.03125 61.675781 147.894531 64.289062 C 147.820312 64.988281 147.710938 65.679688 147.59375 66.371094 L 147.5 66.9375 C 147.296875 68.195312 147.070312 69.449219 146.820312 70.695312 C 146.730469 71.160156 146.644531 71.625 146.570312 72.09375 C 146 75.523438 144.792969 78.5625 142.695312 81.355469 L 142.402344 81.746094 L 142.164062 82.019531 L 141.898438 82.019531 L 141.78125 82.261719 C 141.628906 82.554688 141.628906 82.554688 141.363281 82.953125 L 141.097656 82.953125 L 140.996094 83.1875 C 140.804688 83.53125 140.59375 83.730469 140.296875 83.988281 L 140.015625 84.234375 L 139.765625 84.417969 L 139.5 84.417969 L 139.398438 84.679688 L 139.230469 84.953125 C 138.949219 85.054688 138.949219 85.054688 138.699219 85.085938 L 138.699219 85.351562 C 138.421875 85.566406 138.136719 85.769531 137.839844 85.960938 L 137.570312 86.140625 C 134.933594 87.84375 132.113281 89.015625 128.972656 89.351562 C 128.273438 89.386719 127.574219 89.386719 126.871094 89.382812 C 126.667969 89.382812 126.460938 89.382812 126.253906 89.386719 C 125.695312 89.386719 125.136719 89.382812 124.578125 89.382812 C 123.972656 89.382812 123.367188 89.382812 122.761719 89.382812 C 121.714844 89.382812 120.667969 89.382812 119.621094 89.378906 C 118.109375 89.378906 116.59375 89.378906 115.082031 89.378906 C 112.625 89.375 110.167969 89.375 107.714844 89.371094 C 105.328125 89.371094 102.945312 89.367188 100.558594 89.367188 L 97.898438 89.367188 C 91.78125 89.363281 85.660156 89.359375 79.542969 89.351562 C 79.5625 89.101562 79.582031 88.851562 79.601562 88.597656 L 79.636719 88.175781 C 79.695312 87.523438 79.808594 86.886719 79.921875 86.242188 L 79.996094 85.820312 C 80.074219 85.375 80.152344 84.925781 80.234375 84.476562 L 80.394531 83.550781 C 80.476562 83.082031 80.558594 82.617188 80.640625 82.152344 C 80.808594 81.214844 80.96875 80.273438 81.128906 79.332031 L 81.183594 78.996094 C 81.253906 78.585938 81.324219 78.175781 81.390625 77.761719 C 81.4375 77.488281 81.480469 77.21875 81.527344 76.945312 L 81.605469 76.488281 L 81.675781 76.15625 L 81.808594 76.019531 C 82.164062 76.007812 82.519531 76 82.875 76 L 83.21875 76 C 83.605469 75.996094 83.988281 75.996094 84.375 75.992188 L 85.199219 75.988281 C 85.953125 75.988281 86.710938 75.984375 87.464844 75.980469 C 88.265625 75.976562 89.070312 75.972656 89.871094 75.972656 C 91.414062 75.964844 92.960938 75.957031 94.503906 75.953125 C 95.746094 75.949219 96.984375 75.941406 98.222656 75.9375 C 111.605469 75.882812 111.605469 75.882812 117.808594 75.886719 L 118.726562 75.890625 C 120.5 75.890625 122.277344 75.894531 124.054688 75.902344 C 124.664062 75.90625 125.277344 75.90625 125.886719 75.90625 C 126.289062 75.910156 126.6875 75.910156 127.085938 75.914062 C 128.917969 75.945312 128.917969 75.945312 130.664062 75.457031 C 131.347656 74.976562 131.976562 74.460938 132.4375 73.753906 C 132.511719 73.570312 132.582031 73.386719 132.648438 73.203125 L 132.757812 72.910156 L 132.835938 72.6875 L 132.328125 72.691406 C 130.746094 72.703125 129.160156 72.710938 127.578125 72.714844 C 126.761719 72.71875 125.949219 72.722656 125.132812 72.730469 C 124.347656 72.734375 123.5625 72.738281 122.773438 72.738281 C 122.476562 72.738281 122.175781 72.742188 121.875 72.746094 C 121.457031 72.75 121.035156 72.75 120.617188 72.75 L 120.242188 72.753906 C 119.53125 72.75 119.023438 72.644531 118.402344 72.296875 C 117.945312 72.003906 117.632812 71.6875 117.355469 71.222656 C 117.058594 70.621094 116.886719 70.074219 116.921875 69.398438 C 117.039062 68.78125 117.289062 68.265625 117.648438 67.757812 C 118.15625 67.261719 118.703125 66.898438 119.378906 66.691406 C 119.855469 66.652344 120.324219 66.65625 120.800781 66.660156 L 121.234375 66.660156 C 121.707031 66.660156 122.179688 66.660156 122.652344 66.664062 L 123.632812 66.664062 C 124.496094 66.664062 125.359375 66.667969 126.21875 66.671875 C 127.097656 66.675781 127.980469 66.675781 128.859375 66.675781 C 130.585938 66.679688 132.308594 66.683594 134.035156 66.691406 L 134.136719 65.6875 C 134.207031 64.953125 134.257812 64.285156 134.019531 63.582031 C 133.722656 63.15625 133.414062 62.824219 132.96875 62.558594 C 132.097656 62.277344 131.285156 62.253906 130.375 62.257812 L 129.914062 62.253906 C 129.40625 62.253906 128.898438 62.253906 128.390625 62.253906 C 128.027344 62.253906 127.660156 62.253906 127.296875 62.253906 C 126.511719 62.25 125.726562 62.25 124.945312 62.25 C 123.808594 62.25 122.671875 62.246094 121.535156 62.246094 C 119.6875 62.242188 117.839844 62.238281 115.996094 62.234375 L 115.660156 62.234375 C 113.984375 62.234375 112.304688 62.230469 110.628906 62.230469 L 110.296875 62.230469 C 108.457031 62.226562 106.617188 62.222656 104.78125 62.21875 C 103.648438 62.21875 102.515625 62.214844 101.382812 62.214844 C 100.605469 62.214844 99.828125 62.214844 99.050781 62.210938 C 98.601562 62.210938 98.15625 62.210938 97.707031 62.210938 C 94.277344 62.21875 94.277344 62.21875 92.597656 61.757812 L 92.296875 61.679688 C 90.5 61.191406 88.808594 60.3125 87.402344 59.089844 L 87.085938 58.832031 C 86.421875 58.269531 85.851562 57.660156 85.3125 56.984375 L 85.140625 56.769531 C 84.851562 56.390625 84.617188 56.050781 84.421875 55.613281 C 84.207031 55.15625 84.011719 54.796875 83.671875 54.425781 C 83.027344 54.21875 82.421875 54.25 81.75 54.285156 C 79.632812 54.335938 79.632812 54.335938 78.742188 53.890625 C 78.214844 53.527344 77.808594 53.144531 77.511719 52.570312 C 77.269531 51.90625 77.207031 51.226562 77.328125 50.53125 C 77.527344 49.902344 77.902344 49.425781 78.328125 48.925781 C 78.703125 48.613281 79.074219 48.421875 79.542969 48.292969 C 80.003906 48.234375 80.460938 48.21875 80.925781 48.210938 C 81.164062 48.203125 81.402344 48.195312 81.644531 48.1875 L 81.960938 48.179688 L 82.207031 48.160156 L 82.339844 48.027344 C 82.371094 47.789062 82.394531 47.550781 82.410156 47.3125 L 82.445312 46.878906 L 82.480469 46.417969 L 82.519531 45.957031 C 82.546875 45.582031 82.578125 45.203125 82.605469 44.828125 L 82.285156 44.824219 C 81.28125 44.820312 80.277344 44.8125 79.273438 44.800781 C 78.757812 44.796875 78.242188 44.792969 77.726562 44.789062 C 77.226562 44.789062 76.730469 44.785156 76.230469 44.777344 C 76.042969 44.777344 75.851562 44.773438 75.664062 44.773438 C 73.996094 44.773438 73.996094 44.773438 73.3125 44.445312 C 72.6875 44.03125 72.339844 43.582031 71.972656 42.933594 C 71.761719 42.257812 71.726562 41.664062 71.816406 40.960938 C 71.964844 40.441406 72.195312 40.054688 72.566406 39.660156 C 73.003906 39.265625 73.390625 39.023438 73.945312 38.828125 C 75.117188 38.644531 76.324219 38.667969 77.507812 38.652344 L 78.058594 38.644531 C 78.53125 38.636719 79.007812 38.628906 79.484375 38.625 C 79.972656 38.617188 80.460938 38.609375 80.949219 38.601562 C 81.898438 38.585938 82.851562 38.574219 83.804688 38.5625 L 83.910156 38.042969 L 84.050781 37.363281 L 84.117188 37.023438 C 84.773438 33.859375 86.460938 31.007812 88.585938 28.613281 C 88.980469 28.1875 89.386719 27.769531 89.800781 27.363281 L 90 27.144531 C 92.054688 24.921875 95.136719 23.332031 97.988281 22.40625 C 100.09375 21.789062 102.140625 21.609375 104.324219 21.613281 M 56.09375 23.363281 C 56.371094 23.3125 56.371094 23.3125 56.722656 23.316406 L 57.125 23.3125 L 57.566406 23.316406 L 58.03125 23.316406 C 58.539062 23.320312 59.050781 23.320312 59.558594 23.324219 C 59.910156 23.324219 60.261719 23.324219 60.613281 23.328125 C 61.449219 23.328125 62.28125 23.332031 63.113281 23.335938 C 64.0625 23.339844 65.011719 23.339844 65.960938 23.34375 C 67.910156 23.347656 69.863281 23.355469 71.816406 23.363281 C 71.933594 23.90625 71.933594 24.292969 71.832031 24.839844 L 71.742188 25.335938 L 71.644531 25.871094 L 71.539062 26.441406 C 71.464844 26.851562 71.390625 27.257812 71.316406 27.667969 C 71.136719 28.65625 70.957031 29.644531 70.777344 30.636719 C 70.714844 30.980469 70.652344 31.324219 70.589844 31.671875 C 70.167969 34.007812 69.765625 36.34375 69.363281 38.683594 C 68.875 41.515625 68.382812 44.34375 67.863281 47.171875 C 67.445312 49.441406 67.054688 51.71875 66.664062 53.996094 C 66.285156 56.210938 65.894531 58.425781 65.488281 60.636719 C 65.09375 62.785156 64.722656 64.9375 64.351562 67.089844 C 63.972656 69.3125 63.585938 71.53125 63.179688 73.746094 C 62.671875 76.507812 62.191406 79.273438 61.714844 82.035156 L 61.597656 82.703125 L 61.269531 84.605469 L 61.21875 84.90625 C 61.058594 85.820312 60.902344 86.730469 60.753906 87.644531 L 60.695312 87.996094 C 60.664062 88.195312 60.632812 88.398438 60.601562 88.597656 C 60.566406 88.804688 60.527344 89.011719 60.488281 89.21875 L 60.355469 89.351562 C 60.148438 89.363281 59.945312 89.371094 59.738281 89.367188 L 58.417969 89.367188 C 57.902344 89.367188 57.390625 89.367188 56.875 89.367188 L 55.808594 89.363281 C 54.96875 89.363281 54.125 89.363281 53.285156 89.363281 C 52.328125 89.359375 51.371094 89.359375 50.414062 89.359375 C 48.441406 89.359375 46.472656 89.355469 44.5 89.351562 C 44.34375 88.875 44.398438 88.625 44.480469 88.132812 L 44.566406 87.632812 C 44.597656 87.453125 44.628906 87.273438 44.660156 87.09375 L 44.753906 86.542969 C 44.9375 85.464844 45.140625 84.390625 45.363281 83.324219 C 45.59375 82.203125 45.765625 81.074219 45.941406 79.949219 C 46.125 78.796875 46.324219 77.65625 46.5625 76.515625 C 46.792969 75.402344 46.964844 74.277344 47.140625 73.152344 C 47.351562 71.8125 47.59375 70.480469 47.871094 69.152344 C 47.972656 68.722656 47.972656 68.722656 47.964844 68.421875 L 47.5 68.421875 C 46.058594 68.417969 44.617188 68.410156 43.171875 68.398438 C 42.433594 68.394531 41.691406 68.386719 40.949219 68.386719 C 40.230469 68.382812 39.515625 68.378906 38.800781 68.375 C 38.527344 68.371094 38.253906 68.371094 37.980469 68.371094 C 37.597656 68.371094 37.214844 68.367188 36.832031 68.363281 L 36.492188 68.363281 C 35.8125 68.351562 35.324219 68.222656 34.722656 67.894531 C 34.4375 67.710938 34.25 67.511719 34.058594 67.230469 L 33.871094 66.96875 C 33.550781 66.417969 33.402344 65.953125 33.390625 65.316406 C 33.40625 64.714844 33.488281 64.257812 33.789062 63.738281 C 34.203125 63.191406 34.703125 62.734375 35.3125 62.414062 C 35.878906 62.238281 36.414062 62.25 37.007812 62.246094 L 37.398438 62.242188 C 37.828125 62.238281 38.257812 62.238281 38.6875 62.234375 C 38.984375 62.234375 39.28125 62.230469 39.582031 62.226562 C 40.363281 62.21875 41.144531 62.214844 41.929688 62.210938 C 42.730469 62.203125 43.527344 62.199219 44.328125 62.191406 C 45.894531 62.179688 47.464844 62.167969 49.03125 62.15625 C 49.1875 61.46875 49.335938 60.78125 49.449219 60.082031 L 49.515625 59.664062 L 49.5625 59.359375 L 49.164062 59.359375 C 47.925781 59.367188 46.683594 59.375 45.441406 59.378906 C 44.804688 59.378906 44.167969 59.382812 43.53125 59.386719 C 42.914062 59.390625 42.296875 59.394531 41.679688 59.394531 C 41.445312 59.394531 41.210938 59.398438 40.976562 59.398438 C 40.648438 59.402344 40.320312 59.402344 39.988281 59.402344 L 39.699219 59.40625 C 39.015625 59.402344 38.570312 59.253906 37.972656 58.957031 C 37.488281 58.664062 37.140625 58.335938 36.863281 57.84375 C 36.648438 57.347656 36.515625 56.890625 36.441406 56.359375 C 36.535156 55.699219 36.707031 55.136719 37.039062 54.558594 C 37.449219 54.082031 37.867188 53.722656 38.449219 53.484375 C 39.007812 53.332031 39.511719 53.316406 40.085938 53.316406 L 40.433594 53.3125 C 40.816406 53.308594 41.195312 53.304688 41.578125 53.304688 C 41.84375 53.300781 42.105469 53.296875 42.371094 53.296875 C 43.066406 53.289062 43.761719 53.285156 44.457031 53.277344 C 45.167969 53.273438 45.878906 53.265625 46.585938 53.257812 C 47.980469 53.246094 49.371094 53.234375 50.761719 53.226562 C 50.808594 52.882812 50.851562 52.542969 50.894531 52.199219 C 50.910156 52.105469 50.921875 52.007812 50.933594 51.910156 L 50.972656 51.625 L 51.003906 51.363281 C 51.035156 51.050781 51.035156 50.742188 51.03125 50.425781 L 50.597656 50.425781 C 47.128906 50.4375 43.660156 50.441406 40.191406 50.445312 C 38.515625 50.449219 36.839844 50.453125 35.160156 50.457031 C 33.699219 50.460938 32.238281 50.460938 30.773438 50.464844 C 30 50.464844 29.226562 50.464844 28.453125 50.46875 C 27.722656 50.46875 26.996094 50.472656 26.265625 50.472656 C 26 50.472656 25.730469 50.472656 25.464844 50.472656 C 25.097656 50.476562 24.734375 50.476562 24.367188 50.472656 L 24.050781 50.476562 C 23.324219 50.472656 22.785156 50.320312 22.117188 50.027344 C 21.644531 49.703125 21.296875 49.3125 21.039062 48.800781 C 20.796875 48.15625 20.671875 47.511719 20.785156 46.828125 C 20.941406 46.257812 21.167969 45.796875 21.558594 45.351562 C 22.03125 44.910156 22.414062 44.65625 23.046875 44.480469 C 23.535156 44.382812 24.027344 44.386719 24.527344 44.390625 C 24.703125 44.386719 24.703125 44.386719 24.886719 44.386719 C 25.28125 44.386719 25.679688 44.382812 26.078125 44.382812 L 26.929688 44.378906 C 27.703125 44.375 28.476562 44.375 29.25 44.371094 C 30.058594 44.371094 30.863281 44.367188 31.671875 44.363281 C 33.203125 44.359375 34.730469 44.351562 36.261719 44.347656 C 38 44.34375 39.742188 44.335938 41.484375 44.328125 C 45.066406 44.316406 48.648438 44.304688 52.230469 44.292969 L 52.761719 41.492188 L 51.546875 41.503906 C 50.21875 41.511719 48.886719 41.515625 47.558594 41.523438 C 46.753906 41.523438 45.949219 41.527344 45.144531 41.535156 C 44.367188 41.539062 43.589844 41.542969 42.8125 41.542969 C 42.515625 41.546875 42.21875 41.546875 41.921875 41.550781 C 41.507812 41.554688 41.09375 41.554688 40.675781 41.554688 L 40.308594 41.558594 C 39.578125 41.554688 39.023438 41.425781 38.363281 41.117188 C 37.90625 40.839844 37.59375 40.480469 37.304688 40.027344 C 37.042969 39.519531 36.917969 39.0625 36.855469 38.496094 C 36.929688 37.820312 37.101562 37.277344 37.472656 36.707031 C 37.847656 36.226562 38.257812 35.839844 38.820312 35.597656 C 40.480469 35.105469 42.535156 35.34375 44.25 35.347656 L 45.085938 35.347656 C 45.808594 35.351562 46.53125 35.351562 47.253906 35.351562 C 47.996094 35.355469 48.738281 35.355469 49.480469 35.355469 C 50.929688 35.355469 52.378906 35.359375 53.828125 35.363281 L 53.894531 34.960938 C 54.6875 30.167969 54.6875 30.167969 55.050781 28.136719 L 55.195312 27.339844 C 55.238281 27.078125 55.285156 26.820312 55.332031 26.5625 C 55.402344 26.179688 55.464844 25.792969 55.527344 25.410156 L 55.582031 25.097656 C 55.613281 24.898438 55.648438 24.695312 55.679688 24.496094 C 55.757812 24.039062 55.828125 23.757812 56.09375 23.363281 M 93.730469 96.667969 L 94.011719 96.667969 C 94.699219 96.667969 94.699219 96.667969 94.996094 96.816406 C 95.078125 97.132812 95.148438 97.449219 95.207031 97.765625 L 95.257812 98.03125 C 95.335938 98.449219 95.40625 98.871094 95.464844 99.292969 C 95.53125 99.757812 95.625 100.207031 95.730469 100.667969 C 95.886719 101.386719 96 102.085938 96.0625 102.816406 L 96.332031 102.816406 L 96.429688 102.484375 C 96.625 101.9375 96.867188 101.429688 97.128906 100.90625 L 97.285156 100.59375 C 97.394531 100.371094 97.503906 100.152344 97.613281 99.933594 C 97.777344 99.601562 97.945312 99.265625 98.109375 98.929688 C 98.214844 98.71875 98.320312 98.503906 98.425781 98.292969 L 98.574219 97.988281 L 98.71875 97.707031 L 98.839844 97.457031 C 98.996094 97.21875 98.996094 97.21875 99.527344 96.683594 L 101.792969 96.683594 L 101.792969 107.214844 L 98.996094 107.214844 C 98.988281 106.167969 99.007812 105.121094 99.054688 104.074219 L 99.070312 103.640625 L 99.085938 103.222656 L 99.101562 102.851562 C 99.128906 102.550781 99.128906 102.550781 99.261719 102.285156 L 98.863281 102.285156 L 98.816406 102.574219 C 98.722656 102.96875 98.585938 103.277344 98.402344 103.636719 L 98.207031 104.023438 L 98.003906 104.425781 L 97.800781 104.824219 C 97.675781 105.070312 97.550781 105.316406 97.425781 105.5625 C 97.28125 105.847656 97.136719 106.132812 96.996094 106.414062 L 96.730469 106.414062 L 96.671875 106.664062 C 96.597656 106.949219 96.597656 106.949219 96.464844 107.214844 L 94.332031 107.214844 C 94.125 106.59375 93.992188 106.070312 93.894531 105.433594 L 93.851562 105.160156 C 93.804688 104.871094 93.757812 104.585938 93.714844 104.300781 L 93.621094 103.714844 C 93.546875 103.238281 93.472656 102.761719 93.398438 102.285156 C 93.125 102.898438 92.898438 103.503906 92.703125 104.148438 L 92.625 104.402344 C 92.542969 104.667969 92.464844 104.933594 92.382812 105.199219 C 92.300781 105.46875 92.21875 105.734375 92.136719 106.003906 C 92.066406 106.246094 91.992188 106.484375 91.917969 106.726562 C 91.800781 107.082031 91.800781 107.082031 91.667969 107.214844 C 91.457031 107.226562 91.25 107.230469 91.042969 107.230469 L 90.660156 107.226562 L 90.257812 107.222656 L 89.855469 107.222656 C 89.527344 107.222656 89.199219 107.21875 88.867188 107.214844 C 89.144531 106.085938 89.523438 105.003906 89.929688 103.917969 C 90.109375 103.433594 90.289062 102.945312 90.464844 102.457031 L 90.574219 102.167969 C 90.859375 101.378906 91.132812 100.582031 91.390625 99.785156 C 92.132812 97.519531 92.132812 97.519531 92.464844 96.816406 C 92.871094 96.617188 93.289062 96.664062 93.730469 96.667969 M 117.363281 96.652344 L 117.65625 96.644531 C 118.066406 96.640625 118.386719 96.652344 118.753906 96.839844 C 119.035156 97.140625 119.21875 97.449219 119.414062 97.808594 L 119.625 98.191406 C 119.78125 98.550781 119.78125 98.550781 119.78125 99.082031 L 120.046875 99.082031 C 120.269531 99.5 120.492188 99.917969 120.710938 100.332031 L 120.90625 100.691406 L 121.085938 101.035156 L 121.257812 101.355469 C 121.378906 101.617188 121.378906 101.617188 121.378906 101.882812 L 121.644531 101.75 C 121.726562 101.453125 121.726562 101.453125 121.777344 101.082031 L 121.851562 100.644531 C 121.878906 100.484375 121.90625 100.320312 121.933594 100.152344 L 122.019531 99.617188 C 122.066406 99.335938 122.113281 99.054688 122.15625 98.777344 C 122.199219 98.503906 122.246094 98.234375 122.289062 97.960938 L 122.371094 97.472656 C 122.445312 97.085938 122.445312 97.085938 122.578125 96.816406 L 125.375 96.683594 C 125.296875 98.246094 125.023438 99.75 124.734375 101.285156 L 124.597656 102.035156 C 124.480469 102.660156 124.363281 103.28125 124.246094 103.902344 C 124.175781 104.296875 124.101562 104.695312 124.027344 105.089844 L 123.882812 105.863281 L 123.816406 106.226562 C 123.761719 106.511719 123.703125 106.796875 123.644531 107.082031 L 123.511719 107.214844 C 123.105469 107.273438 122.695312 107.285156 122.285156 107.300781 L 121.941406 107.328125 C 121.589844 107.339844 121.316406 107.324219 120.980469 107.214844 C 120.609375 106.871094 120.40625 106.460938 120.179688 106.015625 L 119.960938 105.617188 C 119.730469 105.183594 119.503906 104.753906 119.28125 104.316406 L 119.046875 103.867188 C 118.734375 103.257812 118.425781 102.65625 118.179688 102.015625 L 117.914062 102.015625 L 117.875 102.414062 C 117.753906 103.554688 117.585938 104.6875 117.375 105.816406 L 117.304688 106.191406 C 117.175781 106.84375 117.175781 106.84375 117.113281 107.082031 L 116.980469 107.214844 C 116.773438 107.226562 116.566406 107.230469 116.355469 107.230469 L 115.976562 107.226562 L 115.574219 107.222656 L 115.171875 107.222656 C 114.84375 107.222656 114.511719 107.21875 114.183594 107.214844 C 114.480469 104.960938 114.894531 102.722656 115.324219 100.488281 C 115.488281 99.632812 115.644531 98.773438 115.789062 97.914062 C 115.855469 97.535156 115.925781 97.183594 116.050781 96.816406 C 116.464844 96.609375 116.90625 96.652344 117.363281 96.652344 " fill-opacity="1" fill-rule="nonzero"/><path fill="#fe6e00" d="M 22.0625 53.339844 L 22.328125 53.335938 C 22.617188 53.335938 22.902344 53.335938 23.191406 53.335938 L 23.792969 53.335938 C 24.210938 53.335938 24.632812 53.332031 25.050781 53.332031 C 25.589844 53.332031 26.125 53.332031 26.664062 53.328125 C 27.078125 53.328125 27.492188 53.328125 27.90625 53.328125 C 28.101562 53.328125 28.300781 53.328125 28.5 53.328125 C 28.777344 53.324219 29.054688 53.324219 29.332031 53.328125 L 29.808594 53.324219 C 30.449219 53.375 30.925781 53.558594 31.484375 53.875 L 31.84375 54.160156 C 31.933594 54.449219 31.933594 54.449219 31.976562 54.691406 L 32.375 54.824219 C 32.730469 55.484375 32.710938 56.15625 32.703125 56.886719 C 32.640625 57.367188 32.546875 57.636719 32.285156 58.042969 C 31.957031 58.457031 31.632812 58.8125 31.175781 59.089844 C 30.546875 59.300781 29.996094 59.390625 29.335938 59.390625 L 28.800781 59.394531 L 27.644531 59.394531 C 27.234375 59.394531 26.824219 59.394531 26.410156 59.390625 C 25.886719 59.390625 25.363281 59.390625 24.835938 59.394531 C 24.433594 59.394531 24.027344 59.394531 23.621094 59.394531 C 23.429688 59.394531 23.234375 59.394531 23.042969 59.394531 C 22.769531 59.394531 22.5 59.394531 22.226562 59.390625 L 21.761719 59.390625 C 21.148438 59.34375 20.597656 59.226562 20.074219 58.890625 C 19.558594 58.421875 19.140625 58.035156 18.917969 57.359375 C 18.785156 56.664062 18.703125 56.003906 18.929688 55.324219 C 19.179688 54.765625 19.542969 54.3125 19.984375 53.890625 C 20.671875 53.402344 21.230469 53.34375 22.0625 53.339844 " fill-opacity="1" fill-rule="nonzero"/><path fill="#fd6e00" d="M 76.488281 96.917969 C 77.253906 97.246094 77.820312 97.6875 78.328125 98.351562 C 78.65625 98.820312 78.847656 99.324219 78.902344 99.898438 C 78.917969 100.214844 78.921875 100.53125 78.917969 100.851562 L 78.914062 101.191406 C 78.890625 102.574219 78.460938 103.609375 77.808594 104.816406 L 77.542969 104.816406 L 77.453125 105.042969 C 77.226562 105.4375 76.949219 105.710938 76.609375 106.015625 L 76.34375 106.015625 L 76.34375 106.28125 C 75.253906 106.878906 74.273438 107.375 73.015625 107.484375 L 72.71875 107.511719 C 71.820312 107.554688 70.929688 107.371094 70.082031 107.082031 C 69.683594 106.855469 69.347656 106.597656 69.015625 106.28125 L 68.789062 106.082031 L 68.617188 105.882812 L 68.617188 105.484375 L 68.351562 105.484375 C 67.945312 104.445312 67.675781 103.535156 67.816406 102.417969 C 68.050781 101.183594 68.40625 100.109375 69.148438 99.082031 L 69.324219 98.832031 C 69.996094 97.949219 70.964844 97.339844 71.972656 96.898438 C 73.496094 96.371094 74.964844 96.386719 76.488281 96.917969 M 71.847656 99.976562 C 71.355469 100.480469 71.101562 101.085938 70.882812 101.75 C 70.828125 102.460938 70.816406 103.132812 71.023438 103.816406 C 71.292969 104.164062 71.558594 104.390625 71.953125 104.589844 C 72.402344 104.75 72.8125 104.746094 73.28125 104.683594 C 73.882812 104.550781 74.378906 104.382812 74.878906 104.015625 C 75.347656 103.539062 75.664062 103.089844 75.878906 102.453125 C 76.007812 101.863281 76.011719 101.285156 75.945312 100.683594 C 75.765625 100.234375 75.574219 100.042969 75.21875 99.71875 C 74.890625 99.492188 74.734375 99.394531 74.347656 99.351562 C 73.375 99.285156 72.675781 99.464844 71.847656 99.976562 M 51.746094 96.648438 L 52.089844 96.648438 L 52.453125 96.652344 L 52.828125 96.652344 C 55.785156 96.695312 55.785156 96.695312 56.890625 97.210938 L 57.292969 97.484375 L 57.425781 97.882812 L 57.824219 98.015625 C 58.082031 98.363281 58.214844 98.632812 58.300781 99.058594 C 58.382812 100.101562 58.320312 100.933594 57.917969 101.898438 C 57.226562 103.078125 57.226562 103.078125 56.652344 103.476562 L 56.359375 103.617188 C 56.488281 104.792969 56.734375 105.847656 57.160156 106.949219 L 57.160156 107.214844 L 54.09375 107.214844 C 53.546875 105.757812 53.546875 105.757812 53.402344 105.367188 L 53.265625 104.992188 C 53.160156 104.683594 53.160156 104.683594 53.160156 104.417969 L 52.363281 104.550781 L 51.828125 107.214844 L 48.898438 107.214844 C 49.152344 105.570312 49.40625 103.929688 49.753906 102.300781 C 49.90625 101.574219 50.023438 100.847656 50.125 100.113281 L 50.167969 99.820312 C 50.242188 99.332031 50.308594 98.84375 50.375 98.355469 C 50.398438 98.175781 50.425781 97.996094 50.449219 97.816406 L 50.515625 97.332031 L 50.628906 96.949219 C 50.988281 96.675781 51.304688 96.648438 51.746094 96.648438 M 53.292969 99.484375 L 53.027344 99.75 C 52.964844 100.0625 52.910156 100.375 52.871094 100.691406 L 52.796875 101.203125 L 52.761719 101.617188 L 52.894531 101.75 C 53.386719 101.800781 53.867188 101.800781 54.359375 101.75 C 54.808594 101.53125 55.058594 101.363281 55.34375 100.957031 C 55.449219 100.601562 55.5 100.386719 55.425781 100.015625 C 55.113281 99.679688 55.113281 99.679688 54.628906 99.484375 C 54.175781 99.429688 53.742188 99.414062 53.292969 99.484375 M 81.957031 96.648438 L 82.648438 96.648438 L 83.039062 96.652344 C 83.238281 96.652344 83.238281 96.652344 83.4375 96.652344 C 86.324219 96.691406 86.324219 96.691406 87.535156 97.351562 L 87.929688 97.550781 L 88.203125 97.75 L 88.203125 98.152344 L 88.601562 98.285156 L 88.601562 98.816406 L 88.867188 98.816406 C 88.914062 99.941406 88.917969 100.96875 88.46875 102.015625 L 88.203125 102.417969 L 87.9375 102.417969 L 87.9375 102.816406 C 87.699219 103.027344 87.699219 103.027344 87.394531 103.25 C 87.101562 103.488281 87.101562 103.488281 86.871094 103.75 C 86.816406 104.207031 86.816406 104.207031 87.003906 104.683594 C 87.074219 104.914062 87.144531 105.144531 87.210938 105.375 L 87.320312 105.707031 C 87.402344 106.015625 87.402344 106.015625 87.402344 106.550781 L 87.667969 106.550781 L 87.667969 107.214844 L 84.605469 107.214844 L 83.671875 104.550781 L 82.875 104.417969 L 82.839844 104.660156 C 82.785156 105.019531 82.734375 105.378906 82.683594 105.742188 L 82.628906 106.125 L 82.574219 106.484375 L 82.523438 106.824219 L 82.472656 107.082031 L 82.339844 107.214844 C 82.132812 107.226562 81.921875 107.230469 81.714844 107.230469 L 81.332031 107.226562 L 80.933594 107.222656 L 80.53125 107.222656 C 80.199219 107.21875 79.871094 107.21875 79.542969 107.214844 C 79.617188 106.195312 79.753906 105.195312 79.9375 104.1875 L 80.015625 103.753906 C 80.066406 103.449219 80.121094 103.148438 80.175781 102.84375 C 80.257812 102.386719 80.339844 101.929688 80.417969 101.472656 C 80.546875 100.757812 80.675781 100.042969 80.804688 99.328125 C 80.867188 98.984375 80.929688 98.640625 80.988281 98.300781 C 81.019531 98.117188 81.054688 97.933594 81.089844 97.753906 L 81.167969 97.292969 L 81.273438 96.949219 C 81.675781 96.683594 81.675781 96.683594 81.957031 96.648438 M 83.804688 99.484375 C 83.550781 100.191406 83.335938 100.863281 83.273438 101.617188 L 83.40625 101.75 C 83.894531 101.800781 84.382812 101.800781 84.871094 101.75 C 85.394531 101.484375 85.613281 101.300781 85.9375 100.816406 C 85.992188 100.417969 85.992188 100.417969 85.9375 100.015625 C 85.777344 99.765625 85.777344 99.765625 85.539062 99.617188 C 85.136719 99.484375 84.867188 99.46875 84.445312 99.476562 L 84.082031 99.480469 Z M 135.367188 97.21875 L 135.367188 97.484375 L 135.769531 97.617188 L 135.769531 97.882812 L 136.167969 98.015625 C 136.394531 98.316406 136.394531 98.316406 136.566406 98.683594 C 136.59375 99.058594 136.59375 99.058594 136.566406 99.351562 L 136.835938 99.351562 L 136.835938 100.015625 C 136.605469 100.121094 136.375 100.226562 136.144531 100.332031 L 135.753906 100.511719 C 134.773438 100.949219 134.773438 100.949219 134.359375 100.957031 L 134.035156 100.816406 C 133.902344 100.585938 133.769531 100.351562 133.644531 100.113281 C 133.5 99.851562 133.5 99.851562 133.160156 99.625 C 132.507812 99.421875 131.917969 99.398438 131.238281 99.484375 C 130.632812 99.664062 130.246094 99.945312 129.796875 100.382812 C 129.386719 100.996094 129.148438 101.511719 129.0625 102.25 C 129.039062 102.867188 129.058594 103.257812 129.339844 103.816406 C 129.613281 104.121094 129.828125 104.335938 130.171875 104.550781 C 130.886719 104.652344 131.574219 104.601562 132.269531 104.417969 C 132.773438 104.105469 133.121094 103.738281 133.503906 103.289062 L 133.769531 103.082031 C 134.222656 103.109375 134.574219 103.261719 134.96875 103.476562 C 135.363281 103.679688 135.753906 103.859375 136.167969 104.015625 L 136.167969 104.28125 L 135.902344 104.28125 L 135.769531 104.816406 L 135.5 104.816406 L 135.476562 105.042969 C 135.292969 105.566406 134.882812 105.855469 134.472656 106.21875 C 133.644531 106.894531 132.734375 107.230469 131.695312 107.449219 C 130.464844 107.539062 129.355469 107.484375 128.171875 107.082031 C 127.511719 106.746094 127.082031 106.289062 126.65625 105.683594 C 126.261719 105.070312 126.0625 104.5 125.996094 103.769531 C 125.96875 102.375 126.136719 101.191406 126.75 99.917969 C 127.332031 98.871094 128.089844 98.078125 129.105469 97.441406 C 131.210938 96.253906 133.183594 96.371094 135.367188 97.21875 M 139.726562 96.667969 L 140.121094 96.664062 L 140.546875 96.667969 L 140.984375 96.667969 C 141.289062 96.667969 141.597656 96.667969 141.902344 96.667969 C 142.371094 96.667969 142.839844 96.667969 143.308594 96.667969 C 143.605469 96.667969 143.898438 96.667969 144.195312 96.667969 L 144.625 96.664062 L 145.015625 96.667969 L 145.367188 96.667969 L 145.628906 96.683594 L 145.761719 96.816406 C 145.75 97.09375 145.734375 97.367188 145.710938 97.640625 L 145.675781 98.097656 C 145.628906 98.523438 145.585938 98.933594 145.496094 99.351562 C 145.105469 99.546875 144.761719 99.5 144.328125 99.496094 L 144.058594 99.496094 C 143.777344 99.496094 143.496094 99.492188 143.210938 99.492188 C 143.019531 99.492188 142.828125 99.492188 142.636719 99.492188 C 142.167969 99.488281 141.699219 99.488281 141.230469 99.484375 L 141.097656 100.683594 L 141.695312 100.648438 L 142.472656 100.609375 L 142.867188 100.585938 L 143.246094 100.566406 L 143.59375 100.546875 C 143.894531 100.550781 143.894531 100.550781 144.296875 100.683594 C 144.28125 100.902344 144.261719 101.121094 144.246094 101.34375 L 144.21875 101.710938 C 144.148438 102.265625 144.015625 102.808594 143.894531 103.351562 L 140.699219 103.484375 L 140.429688 104.550781 L 144.429688 104.550781 C 144.429688 105.195312 144.410156 105.710938 144.304688 106.332031 L 144.234375 106.753906 L 144.160156 107.082031 L 144.027344 107.214844 C 143.8125 107.226562 143.59375 107.234375 143.378906 107.230469 L 142.5 107.230469 L 142.035156 107.226562 C 141.542969 107.226562 141.050781 107.226562 140.554688 107.222656 C 140.222656 107.222656 139.890625 107.222656 139.558594 107.222656 C 138.738281 107.222656 137.917969 107.21875 137.101562 107.214844 C 137.179688 106.058594 137.359375 104.929688 137.5625 103.789062 L 137.660156 103.234375 C 137.726562 102.847656 137.792969 102.464844 137.863281 102.078125 C 137.949219 101.589844 138.035156 101.097656 138.121094 100.605469 C 138.203125 100.132812 138.289062 99.660156 138.371094 99.1875 L 138.417969 98.917969 C 138.460938 98.664062 138.507812 98.410156 138.550781 98.160156 L 138.628906 97.722656 C 138.757812 97.046875 138.757812 97.046875 138.832031 96.816406 C 139.15625 96.65625 139.363281 96.667969 139.726562 96.667969 M 42.523438 96.652344 L 44.089844 96.652344 C 44.390625 96.652344 44.6875 96.65625 44.984375 96.65625 C 45.441406 96.660156 45.898438 96.660156 46.355469 96.660156 C 46.644531 96.660156 46.933594 96.660156 47.21875 96.660156 L 47.636719 96.664062 L 48.019531 96.664062 L 48.359375 96.667969 C 48.632812 96.683594 48.632812 96.683594 48.898438 96.816406 C 48.820312 97.386719 48.734375 97.957031 48.640625 98.527344 L 48.578125 98.902344 L 48.5 99.21875 L 48.230469 99.484375 C 47.835938 99.515625 47.835938 99.515625 47.332031 99.511719 L 47.0625 99.507812 C 46.78125 99.507812 46.5 99.503906 46.214844 99.5 C 46.023438 99.5 45.832031 99.496094 45.640625 99.496094 C 45.171875 99.492188 44.703125 99.488281 44.234375 99.484375 L 44.234375 100.683594 C 44.421875 100.671875 44.605469 100.660156 44.796875 100.644531 L 45.535156 100.601562 L 45.90625 100.574219 L 46.265625 100.554688 L 46.59375 100.53125 C 46.933594 100.550781 47.140625 100.644531 47.433594 100.816406 L 47.378906 101.105469 C 47.21875 101.964844 47.21875 101.964844 47.089844 102.832031 L 47.03125 103.214844 L 46.898438 103.351562 C 46.644531 103.371094 46.386719 103.382812 46.128906 103.390625 L 45.65625 103.410156 L 45.160156 103.425781 L 44.660156 103.441406 C 44.25 103.457031 43.84375 103.46875 43.433594 103.484375 C 43.425781 103.890625 43.4375 104.160156 43.570312 104.550781 L 47.433594 104.550781 C 47.300781 106.28125 47.300781 106.28125 47.03125 107.214844 L 40.105469 107.214844 C 40.1875 106.300781 40.277344 105.46875 40.46875 104.582031 C 40.757812 103.214844 40.976562 101.839844 41.191406 100.460938 C 41.269531 99.957031 41.351562 99.453125 41.4375 98.949219 L 41.484375 98.671875 C 41.53125 98.394531 41.582031 98.117188 41.632812 97.839844 L 41.722656 97.34375 L 41.835938 96.949219 C 42.234375 96.683594 42.234375 96.683594 42.523438 96.652344 M 34.335938 96.667969 C 35.601562 96.636719 37.019531 96.730469 38.238281 97.085938 L 38.238281 97.351562 L 38.773438 97.484375 L 38.773438 97.75 L 39.171875 97.882812 L 39.171875 98.152344 L 39.4375 98.152344 C 39.726562 98.734375 39.75 99.277344 39.746094 99.917969 L 39.746094 100.222656 C 39.726562 101.101562 39.589844 101.800781 39.140625 102.5625 C 38.964844 102.824219 38.964844 102.824219 38.636719 103.214844 L 38.371094 103.214844 L 38.273438 103.460938 C 38.105469 103.75 38.105469 103.75 37.84375 103.9375 L 37.539062 104.101562 L 37.238281 104.261719 C 36.457031 104.625 35.773438 104.730469 34.925781 104.765625 L 34.609375 104.78125 C 34.351562 104.792969 34.097656 104.804688 33.84375 104.816406 C 33.621094 105.316406 33.511719 105.777344 33.433594 106.316406 C 33.394531 106.570312 33.355469 106.828125 33.308594 107.082031 L 33.175781 107.214844 C 32.976562 107.226562 32.777344 107.230469 32.578125 107.230469 L 32.21875 107.226562 L 31.835938 107.222656 L 31.453125 107.222656 C 31.136719 107.222656 30.824219 107.21875 30.511719 107.214844 L 30.378906 106.949219 C 30.402344 106.722656 30.4375 106.496094 30.480469 106.273438 L 30.554688 105.84375 C 30.585938 105.6875 30.613281 105.535156 30.640625 105.375 L 30.730469 104.890625 C 30.824219 104.378906 30.917969 103.863281 31.011719 103.351562 C 31.101562 102.84375 31.195312 102.339844 31.285156 101.835938 C 31.34375 101.507812 31.40625 101.179688 31.464844 100.851562 C 31.652344 99.824219 31.828125 98.796875 31.992188 97.765625 C 32.097656 97.113281 32.097656 97.113281 32.242188 96.816406 C 32.933594 96.707031 33.636719 96.699219 34.335938 96.667969 M 34.640625 99.484375 C 34.574219 99.734375 34.507812 99.984375 34.441406 100.234375 L 34.328125 100.65625 C 34.242188 101.078125 34.214844 101.453125 34.242188 101.882812 L 34.375 102.015625 C 34.917969 102.066406 35.429688 102.058594 35.957031 101.910156 C 36.351562 101.6875 36.351562 101.6875 36.640625 101.351562 C 36.773438 101 36.863281 100.65625 36.90625 100.285156 C 36.855469 99.960938 36.855469 99.960938 36.640625 99.75 C 36.304688 99.539062 36.027344 99.488281 35.632812 99.46875 C 35.304688 99.46875 34.972656 99.472656 34.640625 99.484375 M 111.121094 96.816406 L 111.253906 96.949219 C 111.574219 98.300781 111.714844 99.710938 111.910156 101.082031 C 112.113281 102.484375 112.316406 103.882812 112.535156 105.28125 L 112.585938 105.597656 C 112.648438 106.003906 112.714844 106.410156 112.804688 106.8125 L 112.851562 107.082031 L 112.71875 107.214844 C 112.511719 107.226562 112.300781 107.230469 112.09375 107.230469 L 111.710938 107.226562 L 111.3125 107.222656 L 110.910156 107.222656 C 110.578125 107.21875 110.25 107.21875 109.921875 107.214844 L 109.652344 105.75 C 109.15625 105.648438 108.851562 105.601562 108.367188 105.632812 L 108.027344 105.652344 L 107.679688 105.675781 L 107.324219 105.695312 C 107.035156 105.714844 106.746094 105.730469 106.457031 105.75 L 106.347656 105.96875 L 106.207031 106.257812 L 106.066406 106.542969 C 105.921875 106.816406 105.921875 106.816406 105.65625 107.214844 C 105.371094 107.261719 105.371094 107.261719 105.019531 107.253906 L 104.640625 107.25 C 104.507812 107.246094 104.375 107.246094 104.242188 107.242188 L 103.839844 107.234375 C 103.511719 107.230469 103.1875 107.222656 102.859375 107.214844 C 103.023438 106.679688 103.21875 106.203125 103.488281 105.710938 L 103.710938 105.304688 L 103.949219 104.867188 C 104.074219 104.636719 104.199219 104.402344 104.328125 104.171875 C 104.414062 104.011719 104.5 103.851562 104.589844 103.691406 C 105.03125 102.878906 105.46875 102.0625 105.902344 101.246094 L 106.285156 100.535156 C 106.652344 99.851562 107.015625 99.171875 107.371094 98.484375 L 107.542969 98.160156 C 107.640625 97.964844 107.742188 97.773438 107.839844 97.578125 C 107.953125 97.367188 108.066406 97.15625 108.1875 96.949219 C 108.582031 96.753906 108.996094 96.761719 109.429688 96.734375 C 109.605469 96.722656 109.78125 96.710938 109.960938 96.695312 C 110.382812 96.6875 110.714844 96.703125 111.121094 96.816406 M 108.855469 100.816406 L 107.789062 103.082031 L 109.386719 103.082031 C 109.375 102.78125 109.363281 102.476562 109.347656 102.175781 L 109.320312 101.664062 C 109.300781 101.515625 109.277344 101.367188 109.253906 101.21875 Z M 9.546875 44.386719 L 9.921875 44.386719 C 10.183594 44.382812 10.445312 44.382812 10.707031 44.382812 C 11.105469 44.386719 11.503906 44.382812 11.902344 44.378906 C 12.160156 44.378906 12.414062 44.378906 12.667969 44.378906 L 13.027344 44.375 C 13.761719 44.378906 14.269531 44.484375 14.921875 44.828125 C 15.464844 45.195312 15.792969 45.59375 16.121094 46.160156 C 16.339844 46.855469 16.347656 47.574219 16.253906 48.292969 C 16.019531 48.921875 15.703125 49.421875 15.183594 49.851562 C 14.671875 50.1875 14.203125 50.398438 13.589844 50.445312 L 13.304688 50.453125 L 12.976562 50.457031 C 12.484375 50.464844 11.992188 50.46875 11.5 50.472656 C 11.238281 50.472656 10.980469 50.476562 10.722656 50.484375 C 8.300781 50.53125 8.300781 50.53125 7.441406 50.113281 C 6.933594 49.800781 6.578125 49.46875 6.261719 48.960938 C 6 48.347656 5.816406 47.746094 5.871094 47.078125 C 6.015625 46.484375 6.167969 45.992188 6.527344 45.492188 C 7.460938 44.613281 8.292969 44.386719 9.546875 44.386719 M 106.484375 66.636719 L 106.828125 66.636719 C 107.070312 66.636719 107.308594 66.636719 107.546875 66.636719 C 107.910156 66.640625 108.273438 66.636719 108.636719 66.636719 C 108.871094 66.636719 109.105469 66.636719 109.339844 66.636719 L 109.664062 66.632812 C 110.425781 66.644531 111.085938 66.789062 111.785156 67.089844 C 112.097656 67.3125 112.097656 67.3125 112.308594 67.546875 L 112.53125 67.78125 C 112.8125 68.140625 112.964844 68.46875 113.066406 68.914062 C 113.222656 70.28125 113.222656 70.28125 113 70.871094 C 112.871094 71.125 112.730469 71.375 112.585938 71.621094 L 112.320312 71.621094 L 112.214844 71.871094 C 112.050781 72.15625 112.050781 72.15625 111.839844 72.320312 C 111.089844 72.707031 110.445312 72.765625 109.609375 72.757812 L 109.21875 72.761719 C 108.945312 72.761719 108.675781 72.761719 108.402344 72.757812 C 107.988281 72.753906 107.578125 72.757812 107.164062 72.761719 C 106.898438 72.761719 106.632812 72.761719 106.367188 72.757812 L 105.996094 72.761719 C 105.167969 72.75 104.640625 72.574219 103.925781 72.15625 L 103.925781 71.890625 C 103.84375 71.855469 103.761719 71.820312 103.675781 71.785156 C 103.390625 71.621094 103.390625 71.621094 103.222656 71.417969 C 102.925781 70.859375 102.816406 70.386719 102.800781 69.746094 C 102.828125 69.085938 102.910156 68.597656 103.257812 68.023438 C 103.679688 67.492188 104.039062 67.15625 104.664062 66.878906 C 105.277344 66.65625 105.839844 66.632812 106.484375 66.636719 " fill-opacity="1" fill-rule="nonzero"/><path fill="#fe6e00" d="M 28.914062 35.628906 L 28.914062 35.894531 L 29.152344 35.945312 C 29.445312 36.027344 29.445312 36.027344 29.84375 36.292969 L 29.84375 36.5625 L 30.113281 36.5625 C 30.445312 37.082031 30.625 37.46875 30.699219 38.085938 C 30.730469 39.277344 30.730469 39.277344 30.53125 39.777344 C 30.394531 39.984375 30.394531 39.984375 30.113281 40.292969 L 29.84375 40.695312 L 29.578125 40.695312 L 29.578125 40.960938 C 28.71875 41.417969 28.015625 41.574219 27.046875 41.566406 L 26.675781 41.566406 C 26.414062 41.566406 26.15625 41.566406 25.898438 41.5625 C 25.507812 41.5625 25.113281 41.5625 24.722656 41.566406 C 24.46875 41.566406 24.21875 41.566406 23.964844 41.566406 L 23.613281 41.566406 C 22.914062 41.558594 22.414062 41.4375 21.800781 41.101562 C 21.3125 40.785156 20.980469 40.363281 20.652344 39.894531 C 20.363281 39.3125 20.328125 38.738281 20.34375 38.097656 C 20.410156 37.546875 20.585938 37.136719 20.917969 36.695312 C 21.390625 36.203125 21.882812 35.757812 22.515625 35.496094 C 24.5 35.117188 26.957031 35.148438 28.914062 35.628906 " fill-opacity="1" fill-rule="nonzero"/><path fill="#fd6e00" d="M 64.640625 96.667969 C 64.992188 96.667969 65.339844 96.667969 65.691406 96.667969 C 65.914062 96.667969 66.136719 96.667969 66.359375 96.667969 L 66.675781 96.664062 C 66.921875 96.667969 67.171875 96.675781 67.417969 96.683594 L 67.550781 96.816406 C 67.542969 97.042969 67.523438 97.269531 67.5 97.492188 L 67.460938 97.890625 L 67.417969 98.285156 L 67.382812 98.613281 C 67.355469 98.859375 67.320312 99.105469 67.285156 99.351562 L 67.152344 99.484375 C 66.855469 99.503906 66.558594 99.515625 66.265625 99.527344 L 65.996094 99.535156 C 65.710938 99.542969 65.429688 99.550781 65.144531 99.558594 L 64.570312 99.578125 C 64.097656 99.589844 63.625 99.605469 63.152344 99.617188 L 62.886719 100.949219 L 66.085938 100.949219 C 66.234375 101.550781 66.15625 101.984375 66.035156 102.574219 L 65.980469 102.871094 C 65.929688 103.121094 65.875 103.371094 65.820312 103.617188 L 65.6875 103.75 C 65.4375 103.761719 65.191406 103.765625 64.945312 103.761719 L 64.488281 103.761719 L 64.011719 103.757812 L 63.53125 103.757812 C 63.140625 103.753906 62.746094 103.753906 62.355469 103.75 C 62.226562 104.382812 62.101562 105.011719 61.980469 105.644531 L 61.878906 106.15625 C 61.847656 106.328125 61.8125 106.5 61.78125 106.679688 L 61.6875 107.082031 L 61.554688 107.214844 C 61.355469 107.226562 61.15625 107.230469 60.960938 107.230469 L 60.597656 107.226562 L 60.214844 107.222656 L 59.832031 107.222656 C 59.519531 107.222656 59.203125 107.21875 58.890625 107.214844 C 58.929688 106.054688 59.085938 104.964844 59.328125 103.828125 C 59.589844 102.574219 59.785156 101.304688 59.976562 100.039062 C 60.144531 98.953125 60.359375 97.882812 60.621094 96.816406 C 61.964844 96.683594 63.292969 96.664062 64.640625 96.667969 " fill-opacity="1" fill-rule="nonzero"/><path fill="#fb8628" d="M 102.324219 34.695312 C 109.273438 34.683594 116.222656 34.714844 123.171875 34.753906 C 124.636719 34.761719 126.101562 34.769531 127.566406 34.777344 C 130.566406 34.796875 133.566406 34.8125 136.566406 34.828125 L 136.566406 35.09375 L 102.191406 35.09375 Z M 42.785156 41.078125 C 42.980469 41.078125 43.171875 41.074219 43.363281 41.074219 C 43.765625 41.074219 44.167969 41.074219 44.570312 41.078125 C 45.078125 41.078125 45.585938 41.078125 46.09375 41.074219 C 50.121094 41.070312 50.121094 41.070312 51.960938 41.226562 L 52.09375 41.492188 L 39.304688 41.492188 L 39.304688 41.226562 C 40.464844 41.09375 41.617188 41.074219 42.785156 41.078125 " fill-opacity="1" fill-rule="nonzero"/><path fill="#ef7417" d="M 82.40625 53.941406 L 82.730469 53.960938 C 83.503906 54.007812 83.503906 54.007812 83.804688 54.160156 L 83.671875 54.425781 L 79.808594 54.292969 L 79.808594 54.023438 C 80.6875 53.898438 81.523438 53.894531 82.40625 53.941406 M 62.621094 100.285156 L 62.886719 100.285156 L 62.886719 100.949219 L 65.285156 100.949219 L 65.285156 101.082031 L 62.621094 101.082031 L 62.488281 100.550781 Z M 70.617188 102.417969 L 70.882812 102.417969 L 71.015625 103.484375 L 70.617188 103.484375 C 70.566406 103.171875 70.519531 102.863281 70.480469 102.550781 Z M 70.617188 102.417969 " fill-opacity="1" fill-rule="nonzero"/><path fill="#fb8628" d="M 144.960938 54.425781 C 145.203125 54.507812 145.203125 54.507812 145.496094 54.691406 C 145.726562 55.109375 145.726562 55.109375 145.894531 55.492188 C 145.636719 55.390625 145.636719 55.390625 145.359375 55.226562 C 145.261719 54.941406 145.261719 54.941406 145.226562 54.691406 L 144.960938 54.691406 Z M 144.960938 54.425781 " fill-opacity="1" fill-rule="nonzero"/></g></g></g></svg>